<svg xmlns="http://www.w3.org/2000/svg" xmlns:xlink="http://www.w3.org/1999/xlink" width="4000" zoomAndPan="magnify" viewBox="0 0 3000 1124.99995" height="1500" preserveAspectRatio="xMidYMid meet" version="1.0"><defs><g/><clipPath id="fa380dfee9"><path d="M 83 90 L 650 90 L 650 731 L 83 731 Z M 83 90 " clip-rule="nonzero"/></clipPath><clipPath id="29740fff58"><path d="M 138.519531 54.207031 L 855.980469 215.050781 L 704.988281 888.585938 L -12.476562 727.742188 Z M 138.519531 54.207031 " clip-rule="nonzero"/></clipPath><clipPath id="184abd1c2e"><path d="M 138.519531 54.207031 L 855.980469 215.050781 L 704.988281 888.585938 L -12.476562 727.742188 Z M 138.519531 54.207031 " clip-rule="nonzero"/></clipPath><clipPath id="50aefc4f24"><path d="M 201 334 L 557 334 L 557 673 L 201 673 Z M 201 334 " clip-rule="nonzero"/></clipPath><clipPath id="12919f3d9e"><path d="M 138.519531 54.207031 L 855.980469 215.050781 L 704.988281 888.585938 L -12.476562 727.742188 Z M 138.519531 54.207031 " clip-rule="nonzero"/></clipPath><clipPath id="4f6a5282c5"><path d="M 138.519531 54.207031 L 855.980469 215.050781 L 704.988281 888.585938 L -12.476562 727.742188 Z M 138.519531 54.207031 " clip-rule="nonzero"/></clipPath><clipPath id="8f1d7b6ce6"><path d="M 119 90 L 650 90 L 650 526 L 119 526 Z M 119 90 " clip-rule="nonzero"/></clipPath><clipPath id="6042d72549"><path d="M 138.519531 54.207031 L 855.980469 215.050781 L 704.988281 888.585938 L -12.476562 727.742188 Z M 138.519531 54.207031 " clip-rule="nonzero"/></clipPath><clipPath id="e9a0f71407"><path d="M 138.519531 54.207031 L 855.980469 215.050781 L 704.988281 888.585938 L -12.476562 727.742188 Z M 138.519531 54.207031 " clip-rule="nonzero"/></clipPath><clipPath id="c7aff436cf"><path d="M 44 778.835938 L 790 778.835938 L 790 860 L 44 860 Z M 44 778.835938 " clip-rule="nonzero"/></clipPath></defs><rect x="-300" width="3600" fill="#ffffff" y="-112.499995" height="1349.99994" fill-opacity="1"/><rect x="-300" width="3600" fill="#ffffff" y="-112.499995" height="1349.99994" fill-opacity="1"/><rect x="-300" width="3600" fill="#ffffff" y="-112.499995" height="1349.99994" fill-opacity="1"/><g clip-path="url(#fa380dfee9)"><g clip-path="url(#29740fff58)"><g clip-path="url(#184abd1c2e)"><path fill="#17b2ff" d="M 280.570312 245.03125 C 277.441406 241.269531 269.292969 242.445312 262.367188 247.65625 C 255.4375 252.871094 252.359375 260.144531 255.488281 263.914062 C 258.613281 267.671875 266.761719 266.5 273.691406 261.285156 C 280.617188 256.074219 283.699219 248.800781 280.570312 245.03125 Z M 198.6875 165.972656 C 195.25 161.835938 186.292969 163.128906 178.679688 168.851562 C 171.066406 174.585938 167.679688 182.585938 171.117188 186.71875 C 174.554688 190.859375 183.511719 189.570312 191.128906 183.839844 C 198.738281 178.113281 202.125 170.113281 198.6875 165.972656 Z M 111.957031 295.507812 C 108.519531 291.375 99.5625 292.664062 91.953125 298.386719 C 84.335938 304.121094 80.953125 312.117188 84.386719 316.257812 C 87.824219 320.394531 96.785156 319.105469 104.398438 313.375 C 112.011719 307.648438 115.394531 299.648438 111.957031 295.507812 Z M 229.234375 319.902344 C 225.796875 315.761719 216.835938 317.050781 209.226562 322.777344 C 201.609375 328.507812 198.226562 336.507812 201.664062 340.648438 C 205.101562 344.78125 214.058594 343.492188 221.671875 337.769531 C 229.285156 332.035156 232.671875 324.039062 229.234375 319.902344 Z M 402.933594 499.289062 C 402.933594 499.289062 405.476562 506.308594 411.769531 506.097656 C 418.0625 505.886719 418.992188 501.894531 424.125 494.972656 C 429.246094 488.050781 423.765625 485.601562 420.617188 478.183594 C 417.46875 470.765625 404.765625 460.257812 399.402344 455.355469 C 394.03125 450.460938 370.597656 442.414062 366.050781 431.515625 C 361.5 420.613281 351.589844 413.726562 344.246094 410.90625 C 336.902344 408.085938 332.941406 413.917969 311.257812 418.171875 C 289.578125 422.421875 282.59375 424.507812 263.476562 433.941406 C 244.363281 443.375 215.738281 470.320312 205.214844 497.441406 C 175.089844 575.085938 199.136719 635.820312 247.835938 676.921875 C 424.023438 825.613281 758.09375 650.175781 614.054688 345.425781 C 592.359375 299.523438 573.929688 280.878906 559.945312 272.796875 C 545.945312 264.722656 526.589844 241.144531 514.453125 212.820312 C 502.328125 184.496094 448.457031 144.855469 438.546875 141.316406 C 428.632812 137.777344 403.453125 127.472656 393.542969 126.714844 C 383.632812 125.964844 358.921875 125.921875 354.957031 124.503906 C 350.996094 123.089844 311.707031 101.023438 301.214844 94.683594 C 290.71875 88.347656 264.4375 89.890625 258.609375 92 C 252.78125 94.117188 219.910156 92.792969 199.632812 106.105469 C 179.355469 119.414062 188.683594 136.320312 190.898438 137.695312 C 193.117188 139.082031 208.96875 143.628906 220.167969 150.875 C 231.359375 158.117188 229.960938 166.339844 228.097656 173.214844 C 226.234375 180.085938 214.820312 189.445312 193.957031 204.972656 C 173.09375 220.503906 147.929688 240.289062 131.265625 255.117188 C 116.398438 268.351562 101.589844 332.054688 183.957031 262.40625 C 196.195312 252.050781 210.519531 242.753906 226.136719 234.921875 C 241.757812 227.097656 268.097656 226.835938 282.320312 227.78125 C 296.542969 228.730469 311 239.835938 311.117188 246.296875 C 311.238281 252.769531 308.089844 257.613281 302.378906 264.515625 C 296.671875 271.429688 290.492188 276.433594 284.550781 277.648438 C 278.605469 278.875 258.671875 283.722656 248.535156 291.765625 C 238.398438 299.8125 237.703125 307.269531 241.667969 320.390625 C 245.636719 333.507812 261.082031 338.824219 267.023438 336.488281 C 272.972656 334.15625 279.085938 333.4375 316.152344 326.8125 C 353.222656 320.183594 371.875 326.128906 394.484375 332.375 C 417.105469 338.617188 451.851562 357.585938 481.933594 388.722656 C 512.019531 419.859375 524.390625 449.976562 529.058594 483.507812 C 533.734375 517.035156 527.683594 540.773438 518.820312 559.765625 C 509.972656 578.769531 487.597656 612.207031 459.164062 625.914062 C 430.722656 639.621094 390.394531 643.503906 371.984375 639.347656 C 353.554688 635.191406 311.589844 622.101562 283.597656 576.964844 C 255.605469 531.824219 271.222656 517.859375 285.898438 495.636719 C 300.578125 473.414062 314.566406 461.425781 351.398438 461.933594 C 388.234375 462.441406 402.933594 499.289062 402.933594 499.289062 Z M 441.003906 524.148438 C 439.136719 530.929688 427.292969 533.640625 414.527344 530.199219 C 401.761719 526.753906 392.925781 518.472656 394.789062 511.6875 C 396.652344 504.90625 408.503906 502.195312 421.269531 505.640625 C 434.023438 509.074219 442.859375 517.367188 441.003906 524.148438 " fill-opacity="1" fill-rule="evenodd"/></g></g></g><g clip-path="url(#50aefc4f24)"><g clip-path="url(#12919f3d9e)"><g clip-path="url(#4f6a5282c5)"><path fill="#2d3f4e" d="M 537.421875 581.261719 C 493.621094 664.230469 387.027344 696.105469 299.335938 652.457031 C 240.304688 623.066406 204.894531 566.945312 201.417969 508.085938 C 202.578125 504.574219 203.851562 501.03125 205.242188 497.445312 C 215.765625 470.324219 244.394531 443.378906 263.507812 433.945312 C 282.621094 424.511719 289.609375 422.425781 311.285156 418.175781 C 332.972656 413.921875 336.933594 408.089844 344.273438 410.910156 C 351.617188 413.730469 361.53125 420.617188 366.078125 431.515625 C 370.625 442.417969 394.0625 450.464844 399.425781 455.359375 C 404.789062 460.257812 417.5 470.769531 420.648438 478.1875 C 423.800781 485.605469 429.273438 488.054688 424.152344 494.976562 C 419.023438 501.898438 418.097656 505.894531 411.796875 506.101562 C 405.507812 506.3125 402.96875 499.292969 402.96875 499.292969 C 402.96875 499.292969 388.261719 462.445312 351.425781 461.9375 C 314.59375 461.429688 300.609375 473.417969 285.929688 495.640625 C 271.25 517.867188 255.636719 531.828125 283.628906 576.96875 C 311.621094 622.109375 353.59375 635.199219 372.011719 639.351562 C 390.425781 643.507812 430.753906 639.625 459.195312 625.917969 C 487.632812 612.214844 510.003906 578.773438 518.859375 559.773438 C 527.707031 540.78125 533.765625 517.039062 529.085938 483.511719 C 524.414062 449.984375 512.050781 419.859375 481.960938 388.726562 C 454.339844 360.136719 422.789062 341.800781 400.300781 334.160156 C 419.859375 336.859375 439.34375 342.71875 457.96875 351.992188 C 466.726562 356.351562 474.957031 361.300781 482.648438 366.75 C 524.914062 402.378906 550.726562 451.730469 556.148438 503.492188 C 556.550781 529.769531 550.546875 556.402344 537.421875 581.261719 " fill-opacity="1" fill-rule="evenodd"/></g></g></g><g clip-path="url(#8f1d7b6ce6)"><g clip-path="url(#6042d72549)"><g clip-path="url(#e9a0f71407)"><path fill="#00ffff" d="M 474.492188 255.253906 C 406.992188 221.660156 333.101562 213.601562 264.957031 227.464844 C 251.769531 227.84375 236.566406 229.695312 226.140625 234.917969 C 193.722656 251.171875 151.84375 297.367188 126.542969 294.054688 C 112.980469 290.550781 122.113281 263.269531 131.265625 255.117188 C 147.929688 240.289062 173.097656 220.5 193.957031 204.96875 C 214.820312 189.445312 226.238281 180.085938 228.097656 173.214844 C 229.964844 166.335938 231.363281 158.117188 220.167969 150.871094 C 208.972656 143.628906 193.117188 139.078125 190.902344 137.695312 C 188.6875 136.316406 179.355469 119.414062 199.632812 106.105469 C 219.914062 92.789062 252.785156 94.113281 258.613281 91.996094 C 264.4375 89.886719 290.722656 88.339844 301.214844 94.679688 C 311.710938 101.019531 350.996094 123.085938 354.960938 124.503906 C 358.925781 125.914062 383.636719 125.957031 393.546875 126.71875 C 403.457031 127.46875 428.636719 137.773438 438.550781 141.316406 C 448.460938 144.855469 502.328125 184.492188 514.457031 212.816406 C 526.59375 241.144531 545.949219 264.71875 559.945312 272.796875 C 573.9375 280.875 592.363281 299.519531 614.0625 345.425781 C 645.722656 412.421875 654.277344 473.15625 646.492188 525.582031 C 646.765625 416.253906 583.710938 309.625 474.492188 255.253906 " fill-opacity="1" fill-rule="evenodd"/></g></g></g><path fill="#2d3f4e" d="M 489.144531 868.933594 C 430.097656 870.230469 339.808594 860.226562 257.476562 891.578125 C 241.277344 919.652344 263.714844 936.304688 274.425781 953.855469 C 391.792969 944.796875 450.367188 942.132812 590.855469 936.871094 C 617.765625 864.378906 486.320312 889.925781 489.144531 868.933594 Z M 489.144531 868.933594 " fill-opacity="1" fill-rule="evenodd"/><g clip-path="url(#c7aff436cf)"><path fill="#2d3f4e" d="M 302.679688 -42.597656 C 273.34375 -17.449219 245.042969 -15.914062 217.921875 2.695312 C 217.921875 -0.441406 213.355469 -3.71875 212.269531 2.695312 C 219.921875 12.511719 176.203125 29.96875 184.019531 42.328125 C 171.46875 18.832031 201.300781 17.722656 172.71875 14.019531 C 173.210938 5.101562 187.125 9.585938 184.019531 -2.964844 C 148.019531 -42.335938 112.703125 -106.359375 48.40625 -99.210938 C 27.148438 -32.429688 97.332031 15.625 152.660156 35.914062 C 149.171875 35.109375 146.230469 36.21875 144.464844 42.328125 C 152.023438 53.015625 149.054688 67.996094 138.816406 81.960938 C 138.179688 75.070312 137.121094 68.5625 127.511719 70.636719 C 140.15625 92.765625 102.414062 92.648438 121.863281 121.59375 C 69.3125 132.984375 51.539062 238.128906 71.007812 302.765625 C 63.78125 302.457031 63.167969 295.5 54.058594 297.105469 C 63.898438 401.136719 102.839844 512.71875 172.71875 574.523438 C 197.910156 596.816406 237.933594 601.015625 251.824219 631.140625 C 269.71875 669.972656 237.320312 710.546875 257.476562 750.035156 C 309.199219 788.015625 383.433594 747.441406 443.941406 772.683594 C 388.191406 793.726562 259.804688 739.019531 251.824219 834.960938 C 260.984375 855.601562 300.371094 862.820312 353.535156 857.609375 C 444.882812 848.667969 523.238281 851.96875 596.503906 834.960938 C 596.503906 825.550781 596.503906 816.089844 596.503906 806.652344 C 566.273438 783.914062 523.472656 791.933594 494.820312 778.367188 C 514.03125 772.304688 479.09375 776.601562 489.167969 761.359375 C 525.402344 771.621094 578.492188 769.097656 602.179688 750.0625 C 620.261719 703.140625 591.488281 639.375 613.480469 602.855469 C 717 560.984375 782.925781 422.085938 788.621094 319.773438 C 801.710938 85.027344 558.433594 -112.800781 302.679688 -42.597656 Z M 172.71875 42.328125 C 167.042969 44.238281 160.355469 38.859375 154.707031 36.644531 C 160.945312 38.859375 167.042969 40.820312 172.71875 42.328125 Z M 551.277344 585.847656 C 543.296875 636.710938 546.261719 645.132812 540 693.421875 C 530.582031 693.421875 521.140625 693.421875 511.746094 693.421875 C 519.894531 675.726562 496.160156 673.0625 500.445312 693.421875 C 467.4375 683.183594 435.300781 697.101562 426.988281 670.773438 C 412.296875 673.039062 409.945312 687.6875 393.085938 687.757812 C 398.289062 672.875 370.53125 679.808594 353.535156 693.421875 C 363.941406 683.488281 354.214844 673.746094 336.582031 676.433594 C 338.417969 629.5625 346.328125 595.214844 308.328125 580.1875 C 312.472656 570.089844 318.617188 579.386719 325.28125 580.1875 C 267.316406 532.558594 179.144531 466.175781 144.464844 376.367188 C 144.890625 318.808594 142.039062 268.230469 144.464844 229.164062 C 187.265625 99.132812 312.378906 1.210938 477.84375 -2.964844 C 495.949219 5.339844 509.25 18.433594 540.023438 14.019531 C 634.785156 61.789062 708.808594 135.296875 732.140625 251.808594 C 763.476562 408.496094 661.980469 528.972656 551.277344 585.847656 Z M 551.277344 585.847656 " fill-opacity="1" fill-rule="evenodd"/></g><path fill="#2d3f4e" d="M 477.820312 959.519531 C 435.84375 970.722656 304.210938 935.597656 297.003906 1021.796875 C 365.847656 1072.988281 461.953125 1026.230469 545.628906 1027.457031 C 544.355469 1016.75 552.007812 1014.980469 551.277344 1004.8125 C 532.160156 972.351562 465.203125 980.417969 477.820312 959.519531 Z M 477.820312 959.519531 " fill-opacity="1" fill-rule="evenodd"/><g fill="#2d3f4e" fill-opacity="1"><g transform="translate(771.781872, 520.90183)"><g><path d="M 97.5625 0 L 27.53125 0 L 27.53125 -275.390625 L 97.5625 -275.390625 Z M 97.5625 0 "/></g></g></g><g fill="#2d3f4e" fill-opacity="1"><g transform="translate(896.886784, 520.90183)"><g><path d="M 281.671875 0 L 219.90625 0 L 93.234375 -169.5625 L 93.234375 0 L 27.53125 0 L 27.53125 -275.390625 L 89.296875 -275.390625 L 216.375 -105.4375 L 216.375 -275.390625 L 281.671875 -275.390625 Z M 281.671875 0 "/></g></g></g><g fill="#2d3f4e" fill-opacity="1"><g transform="translate(1206.108405, 520.90183)"><g><path d="M 281.671875 0 L 219.90625 0 L 93.234375 -169.5625 L 93.234375 0 L 27.53125 0 L 27.53125 -275.390625 L 89.296875 -275.390625 L 216.375 -105.4375 L 216.375 -275.390625 L 281.671875 -275.390625 Z M 281.671875 0 "/></g></g></g><g fill="#2d3f4e" fill-opacity="1"><g transform="translate(1515.330026, 520.90183)"><g><path d="M 158.15625 -277.75 C 200.90625 -277.75 236.441406 -264.4375 264.765625 -237.8125 C 293.085938 -211.195312 307.25 -177.953125 307.25 -138.078125 C 307.25 -97.953125 293.019531 -64.382812 264.5625 -37.375 C 236.101562 -10.363281 200.628906 3.140625 158.140625 3.140625 C 115.660156 3.140625 80.253906 -10.296875 51.921875 -37.171875 C 23.597656 -64.054688 9.4375 -97.691406 9.4375 -138.078125 C 9.4375 -178.210938 23.597656 -211.523438 51.921875 -238.015625 C 80.253906 -264.503906 115.664062 -277.75 158.15625 -277.75 Z M 158.9375 -219.125 C 137.425781 -219.125 119.066406 -211.320312 103.859375 -195.71875 C 88.648438 -180.113281 81.046875 -160.769531 81.046875 -137.6875 C 81.046875 -114.613281 88.710938 -95.140625 104.046875 -79.265625 C 119.390625 -63.398438 137.679688 -55.46875 158.921875 -55.46875 C 180.171875 -55.46875 198.203125 -63.398438 213.015625 -79.265625 C 227.835938 -95.140625 235.25 -114.613281 235.25 -137.6875 C 235.25 -160.769531 227.835938 -180.113281 213.015625 -195.71875 C 198.203125 -211.320312 180.175781 -219.125 158.9375 -219.125 Z M 158.9375 -219.125 "/></g></g></g><g fill="#2d3f4e" fill-opacity="1"><g transform="translate(1832.026514, 520.90183)"><g><path d="M 179 0 L 106.609375 0 L -0.390625 -275.390625 L 74.359375 -275.390625 L 144.78125 -72.78125 L 215.1875 -275.390625 L 287.1875 -275.390625 Z M 179 0 "/></g></g></g><g fill="#2d3f4e" fill-opacity="1"><g transform="translate(2118.823669, 520.90183)"><g><path d="M 210.46875 -50.75 L 90.09375 -50.75 L 70.03125 0 L -1.96875 0 L 116.84375 -275.390625 L 188.828125 -275.390625 L 304.890625 0 L 230.140625 0 Z M 190.015625 -103.859375 L 150.671875 -205.75 L 110.546875 -103.859375 Z M 190.015625 -103.859375 "/></g></g></g><g fill="#2d3f4e" fill-opacity="1"><g transform="translate(2421.750766, 520.90183)"><g><path d="M 238.015625 -219.125 L 155 -219.125 L 155 0 L 84.96875 0 L 84.96875 -219.125 L 2.75 -219.125 L 2.75 -275.78125 L 238.015625 -275.78125 Z M 238.015625 -219.125 "/></g></g></g><g fill="#2d3f4e" fill-opacity="1"><g transform="translate(2662.125377, 520.90183)"><g><path d="M 243.125 -220.3125 L 97.5625 -220.3125 L 97.5625 -165.625 L 228.96875 -165.625 L 228.96875 -110.546875 L 97.5625 -110.546875 L 97.5625 -55.078125 L 247.453125 -55.078125 L 247.453125 0 L 27.53125 0 L 27.53125 -275.390625 L 243.125 -275.390625 Z M 243.125 -220.3125 "/></g></g></g><g fill="#2d3f4e" fill-opacity="1"><g transform="translate(2927.281687, 520.90183)"><g/></g></g><g fill="#2d3f4e" fill-opacity="1"><g transform="translate(771.781872, 946.151793)"><g><path d="M 422.90625 -275.390625 L 330.0625 0 L 299.375 0 L 218.734375 -234.859375 L 137.6875 0 L 107.40625 0 L 14.5625 -275.390625 L 44.453125 -275.390625 L 123.921875 -38.546875 L 206.140625 -275.390625 L 233.296875 -275.390625 L 314.328125 -37.375 L 394.984375 -275.390625 Z M 422.90625 -275.390625 "/></g></g></g><g fill="#2d3f4e" fill-opacity="1"><g transform="translate(1208.862372, 946.151793)"><g><path d="M 217.546875 -73.5625 L 64.125 -73.5625 L 31.078125 0 L 0.78125 0 L 126.671875 -275.390625 L 155.390625 -275.390625 L 281.28125 0 L 250.59375 0 Z M 206.9375 -97.171875 L 140.84375 -245.09375 L 74.75 -97.171875 Z M 206.9375 -97.171875 "/></g></g></g><g fill="#2d3f4e" fill-opacity="1"><g transform="translate(1490.938608, 946.151793)"><g><path d="M 273.8125 -275.390625 L 151.859375 0 L 123.140625 0 L 1.1875 -275.390625 L 32.65625 -275.390625 L 138.078125 -36.1875 L 244.3125 -275.390625 Z M 273.8125 -275.390625 "/></g></g></g><g fill="#2d3f4e" fill-opacity="1"><g transform="translate(1765.540022, 946.151793)"><g><path d="M 239.578125 -25.171875 L 239.578125 0 L 44.84375 0 L 44.84375 -275.390625 L 233.6875 -275.390625 L 233.6875 -250.203125 L 73.953125 -250.203125 L 73.953125 -152.25 L 216.375 -152.25 L 216.375 -127.46875 L 73.953125 -127.46875 L 73.953125 -25.171875 Z M 239.578125 -25.171875 "/></g></g></g></svg>